<svg width="173" height="40" viewBox="0 0 173 40" fill="none" xmlns="http://www.w3.org/2000/svg">
<g clip-path="url(#clip0_142_58579)">
<path d="M25.509 3.30078L21.2383 7.26071L25.509 11.7711V3.30078Z" fill="#1A1523"/>
<path d="M25.509 17.7035V13.715L20.1143 7.94838L16.3963 7.27817V3.23554V0L7.87192 8.43464L0 26.0226L12.2395 29.7159L7.05994 23.4929L10.2509 9.93761L14.3834 4.74422V13.1289L10.2509 16.7167L19.724 19.6841L22.3465 18.1099L25.9335 20.8634C25.6885 21.9386 26.244 23.0366 27.2569 23.473L27.2982 23.4915C26.4278 24.9888 24.9705 24.9745 23.2782 24.3599L17.9761 22.0284L15.8649 24.3599L20.2952 29.4977L15.8977 33.7713L4.34338 30.1408L13.372 40L23.2497 32.8373V27.2404C26.8338 28.1986 29.2198 26.3549 30.1444 22.0741L25.509 17.7035ZM20.459 16.9035L17.7353 14.4993H21.3066L22.1685 15.9053L20.459 16.9035Z" fill="#1A1523"/>
<path d="M49.1733 24.4227H52.1847V24.5353C51.9126 27.5741 49.6533 30.6371 45.1931 30.6371C40.7315 30.6371 37.5605 27.3345 37.5605 22.596C37.5605 17.8575 40.6275 14.5635 45.1931 14.5635C49.7587 14.5635 51.9126 17.6265 52.1776 20.6652V20.7693H49.1747L49.159 20.6895C48.9268 19.1737 47.7487 17.4026 45.2273 17.4026C42.5279 17.4026 40.6375 19.543 40.6375 22.5974C40.6375 25.6519 42.5279 27.8008 45.2273 27.8008C47.7502 27.8008 48.9268 26.0297 49.159 24.5139L49.1733 24.4227Z" fill="#1A1523"/>
<path d="M61.3856 14.5605C56.9411 14.5605 53.8413 17.8631 53.8413 22.5931C53.8413 27.323 56.9411 30.6341 61.3856 30.6341C65.8301 30.6341 68.9384 27.3316 68.9384 22.5931C68.9384 17.8545 65.8315 14.5605 61.3856 14.5605ZM65.8629 22.5945C65.8629 25.6575 64.021 27.7979 61.3856 27.7979C58.7502 27.7979 56.9169 25.6575 56.9169 22.5945C56.9169 19.5315 58.7588 17.3997 61.3856 17.3997C64.0124 17.3997 65.8629 19.54 65.8629 22.5945Z" fill="#1A1523"/>
<path d="M85.0526 21.1514V30.3946H81.977V21.7517C81.977 18.6973 80.8801 17.2785 78.5254 17.2785C76.3473 17.2785 73.9997 19.5072 73.9997 23.1064V30.3946H70.917V14.8015H73.9997V15.9152C73.9997 16.4685 74.0239 17.0132 73.5438 17.8232L73.8957 18.1597C74.5367 16.7081 76.4826 14.5605 79.2462 14.5605C83.0497 14.5605 85.0526 16.8378 85.0526 21.1514Z" fill="#1A1523"/>
<path d="M99.0045 8.54883V16.1008C99.0045 16.6298 99.1085 16.9992 99.4689 17.5995L99.0842 17.9203C98.3392 15.8755 96.305 14.5607 93.8705 14.5607C89.8818 14.5607 86.9829 17.9446 86.9829 22.6018C86.9829 27.259 89.8818 30.6357 93.8705 30.6357C96.1925 30.6357 98.1555 29.4493 99.0045 27.5656V30.3962H102.089V8.55025H99.0045V8.54883ZM94.4788 27.7981C92.436 27.7981 90.0656 26.4348 90.0656 22.6032C90.0656 18.7716 92.436 17.3998 94.4788 17.3998C97.0571 17.3998 99.0045 19.6372 99.0045 22.6032C99.0045 25.5693 97.0586 27.7981 94.4788 27.7981Z" fill="#1A1523"/>
<path d="M118.986 14.8008V30.3938H115.911V27.2595C114.973 28.8866 113.123 30.6348 110.657 30.6348C106.861 30.6348 104.851 28.3575 104.851 24.0454V14.8022H107.935V23.445C107.935 26.4995 109.024 27.9183 111.379 27.9183C113.557 27.9183 115.912 25.6895 115.912 22.0904V14.8022H118.986V14.8008Z" fill="#1A1523"/>
<path d="M135.413 30.3945H131.672L131.648 30.3631L126.241 23.4686L124.727 24.9844V30.3959H121.643V8.54004H124.727V21.3111L131.014 14.8015H134.962L134.794 14.9698L128.187 21.5521L135.413 30.3945Z" fill="#1A1523"/>
<path d="M141.636 17.5188V25.4886C141.636 27.244 142.021 27.6775 143.582 27.6775H145.969V30.3954H143.343C139.947 30.3954 138.562 29.065 138.562 25.7852V17.5188H135.679V14.8009H138.562V10.4717H141.637V14.8009H146.17V17.5188H141.636Z" fill="#1A1523"/>
<path d="M154.691 14.5605C150.246 14.5605 147.139 17.8631 147.139 22.6016C147.139 27.3401 150.246 30.6356 154.691 30.6356C159.137 30.6356 162.235 27.333 162.235 22.6016C162.235 17.8717 159.137 14.5605 154.691 14.5605ZM159.159 22.6016C159.159 25.6561 157.317 27.7964 154.691 27.7964C152.064 27.7964 150.213 25.6561 150.213 22.6016C150.213 19.5472 152.057 17.3982 154.691 17.3982C157.326 17.3997 159.159 19.54 159.159 22.6016Z" fill="#1A1523"/>
<path d="M172.992 14.5605V17.7119H172.888C170.717 17.5522 169.308 17.8645 168.443 18.6659C167.601 19.4602 167.225 20.7749 167.225 22.931V30.3946H164.141V14.8015H167.225V15.9238C167.225 16.517 167.225 16.9106 166.712 17.7276L167.137 18.0556C168.083 15.6828 168.996 14.5605 172.896 14.5605H172.992Z" fill="#1A1523"/>
</g>
<defs>
<clipPath id="clip0_142_58579">
<rect width="172.991" height="40" fill="white"/>
</clipPath>
</defs>
</svg>
